<?xml version="1.0" encoding="utf-8"?>
<!-- Generator: Adobe Illustrator 21.1.0, SVG Export Plug-In . SVG Version: 6.00 Build 0)  -->
<svg version="1.1" id="Layer_1" xmlns="http://www.w3.org/2000/svg" xmlns:xlink="http://www.w3.org/1999/xlink" x="0px" y="0px"
	 viewBox="0 0 360 360" style="enable-background:new 0 0 360 360;" xml:space="preserve">
<style type="text/css">
	.st0{fill:#FFFFFF;}
	.st1{fill:none;stroke:#000000;stroke-miterlimit:10;}
</style>
<g>
	<g id="XMLID_1_">
		<g>
			<path class="st0" d="M207.2,238.3c0,1.6-1.6,2.7-3.1,2.2c-64.3-23.2-100.4-19-110.1-17.1c-1.4,0.3-2.7-0.8-2.7-2.2V86.4
				c0-0.2,0-0.5,0.1-0.8c0.9-2.6,3.3-3.6,3.3-3.6v137.5C144.7,213.3,207.2,238.3,207.2,238.3z"/>
			<path class="st0" d="M323.7,86.6v134.7c0,1.4-1.3,2.5-2.7,2.2c-9.8-1.9-45.8-6.2-110.2,17.1c-1.5,0.5-3.1-0.6-3.1-2.2
				c0,0,62.5-25,112.5-18.8V82.3c0,0,2.4,1,3.3,3.6C323.7,86.1,323.7,86.4,323.7,86.6z"/>
			<path class="st0" d="M207.2,99.3v138.9c0,0-62.5-25-112.5-18.8V82C94.7,82,150,65.7,207.2,99.3z"/>
			<path class="st0" d="M320.3,219.8c-50-6.2-112.5,18.8-112.5,18.8V99.6C265,65.9,320.3,82.3,320.3,82.3V219.8z"/>
		</g>
		<g>
			<path class="st1" d="M94.7,82c0,0,55.3-16.3,112.5,17.3v138.9c0,0-62.5-25-112.5-18.8V82z"/>
			<path class="st1" d="M94.7,82c0,0-2.4,1-3.3,3.6c-0.1,0.2-0.1,0.5-0.1,0.8v134.8c0,1.4,1.3,2.5,2.7,2.2
				c9.8-1.9,45.8-6.2,110.1,17.1c1.5,0.5,3.1-0.6,3.1-2.2"/>
			<path class="st1" d="M320.3,82.3c0,0-55.3-16.3-112.5,17.3v138.9c0,0,62.5-25,112.5-18.8V82.3z"/>
			<path class="st1" d="M320.3,82.3c0,0,2.4,1,3.3,3.6c0.1,0.2,0.1,0.5,0.1,0.8v134.7c0,1.4-1.3,2.5-2.7,2.2
				c-9.8-1.9-45.8-6.2-110.2,17.1c-1.5,0.5-3.1-0.6-3.1-2.2"/>
		</g>
	</g>
</g>
</svg>
